<?xml version="1.0" encoding="UTF-8" standalone="no"?><!DOCTYPE svg PUBLIC "-//W3C//DTD SVG 1.1//EN" "http://www.w3.org/Graphics/SVG/1.1/DTD/svg11.dtd"><svg width="100%" height="100%" viewBox="0 0 30 30" version="1.1" xmlns="http://www.w3.org/2000/svg" xmlns:xlink="http://www.w3.org/1999/xlink" xml:space="preserve" style="fill-rule:evenodd;clip-rule:evenodd;stroke-linejoin:round;stroke-miterlimit:1.41421;"><g><g id="Layer7"><g><g><path d="M8.307,7.628c-2.058,0 -3.809,0.731 -5.253,2.194c-1.457,1.468 -2.185,3.225 -2.185,5.271c0,2.063 0.728,3.817 2.185,5.262c1.438,1.45 3.189,2.176 5.253,2.176c2.045,0 3.799,-0.726 5.262,-2.176c1.449,-1.439 2.349,-3.43 2.139,-6.173l-7.538,0l0,2.814l4.188,0c-0.642,1.381 -2.116,2.567 -4.024,2.567c-1.238,0 -2.288,-0.437 -3.15,-1.311c-0.874,-0.874 -1.311,-1.927 -1.311,-3.159c0,-1.232 0.437,-2.285 1.311,-3.159c0.868,-0.88 1.918,-1.32 3.15,-1.32c1.208,0 2.258,0.44 3.15,1.32l2.103,-2.103c-1.199,-1.178 -3.005,-2.176 -5.271,-2.176l-0.009,-0.027Z" style="fill:none;stroke:#fff;stroke-width:1px;"/><path d="M8.307,7.628c-2.058,0 -3.809,0.731 -5.253,2.194c-1.457,1.468 -2.185,3.225 -2.185,5.271c0,2.063 0.728,3.817 2.185,5.262c1.438,1.45 3.189,2.176 5.253,2.176c2.045,0 3.799,-0.726 5.262,-2.176c1.449,-1.439 2.349,-3.43 2.139,-6.173l-7.538,0l0,2.814l4.188,0c-0.642,1.381 -2.116,2.567 -4.024,2.567c-1.238,0 -2.288,-0.437 -3.15,-1.311c-0.874,-0.874 -1.311,-1.927 -1.311,-3.159c0,-1.232 0.437,-2.285 1.311,-3.159c0.868,-0.88 1.918,-1.32 3.15,-1.32c1.208,0 2.258,0.44 3.15,1.32l2.103,-2.103c-1.199,-1.178 -3.005,-2.176 -5.271,-2.176l-0.009,-0.027Z" style="fill:#004e7b;fill-rule:nonzero;"/></g></g><rect x="16.776" y="5.767" width="12.439" height="18.411" style="fill:#004e7b;"/><g><path d="M18.41,7.628l0,14.675l8.849,0l0,-2.931l-5.9,0l0,-11.744l-2.949,0Z" style="fill:#fff;fill-rule:nonzero;"/></g></g></g></svg>