<?xml version="1.0" encoding="UTF-8" standalone="no"?><!DOCTYPE svg PUBLIC "-//W3C//DTD SVG 1.1//EN" "http://www.w3.org/Graphics/SVG/1.1/DTD/svg11.dtd"><svg width="100%" height="100%" viewBox="0 0 146 146" version="1.1" xmlns="http://www.w3.org/2000/svg" xmlns:xlink="http://www.w3.org/1999/xlink" xml:space="preserve" style="fill-rule:evenodd;clip-rule:evenodd;stroke-linejoin:round;stroke-miterlimit:1.41421;"><g><path d="M141.459,122.172l-33.375,-33.366c-4.971,7.725 -11.546,14.307 -19.281,19.278l33.372,33.369c5.328,5.328 13.966,5.328 19.284,0c5.325,-5.315 5.325,-13.953 0,-19.281Z" style="fill:#030404;fill-rule:nonzero;"/><path d="M54.544,95.45c-22.556,0 -40.906,-18.353 -40.906,-40.903c0,-22.559 18.35,-40.913 40.906,-40.913c22.559,0 40.909,18.354 40.909,40.913c0,22.55 -18.35,40.903 -40.909,40.903Zm54.547,-40.903c0,-30.128 -24.425,-54.547 -54.547,-54.547c-30.119,0 -54.544,24.419 -54.544,54.547c0,30.119 24.425,54.541 54.544,54.541c30.122,0 54.547,-24.422 54.547,-54.541Z" style="fill:#030404;fill-rule:nonzero;"/><path d="M22.728,54.547l9.091,0c0,-12.531 10.197,-22.731 22.725,-22.731l0,-9.088c-17.541,0 -31.816,14.269 -31.816,31.819Z" style="fill:#030404;fill-rule:nonzero;"/></g></svg>