<?xml version="1.0" encoding="UTF-8" standalone="no"?><!DOCTYPE svg PUBLIC "-//W3C//DTD SVG 1.1//EN" "http://www.w3.org/Graphics/SVG/1.1/DTD/svg11.dtd"><svg width="100%" height="100%" viewBox="0 0 757 163" version="1.1" xmlns="http://www.w3.org/2000/svg" xmlns:xlink="http://www.w3.org/1999/xlink" xml:space="preserve" style="fill-rule:evenodd;clip-rule:evenodd;stroke-linejoin:round;stroke-miterlimit:1.41421;"><g><g id="Layer7"><g><path d="M43.459,59.954c-11.918,0 -22.061,4.236 -30.428,12.709c-8.437,8.508 -12.656,18.685 -12.656,30.533c0,11.953 4.219,22.113 12.656,30.481c8.332,8.402 18.475,12.603 30.428,12.603c11.848,0 22.008,-4.201 30.481,-12.603c8.394,-8.334 13.608,-19.867 12.392,-35.754l-43.664,0l0,16.295l24.258,0c-3.722,8.004 -12.261,14.871 -23.309,14.871c-7.172,0 -13.254,-2.532 -18.246,-7.594c-5.062,-5.063 -7.594,-11.162 -7.594,-18.299c0,-7.137 2.532,-13.236 7.594,-18.299c5.028,-5.097 11.11,-7.646 18.246,-7.646c6.996,0 13.078,2.549 18.246,7.646l12.182,-12.181c-6.946,-6.821 -17.409,-12.604 -30.533,-12.604l-0.053,-0.158Z" style="fill:#004e7b;fill-rule:nonzero;stroke:#fff;stroke-width:0.75px;"/><path d="M128.256,129.141c-9.342,0 -17.192,-7.817 -17.192,-17.086l0,-51.416l-17.191,0l0,51.469c0,9.492 3.357,17.596 10.072,24.311c6.715,6.679 14.836,10.019 24.364,10.019c9.421,0 17.507,-3.34 24.257,-10.019c6.715,-6.715 10.073,-14.819 10.073,-24.311l0,-51.469l-17.192,0l0,51.416c0,9.213 -7.939,17.086 -17.191,17.086Z" style="fill:#004e7b;fill-rule:nonzero;stroke:#fff;stroke-width:0.75px;"/><rect x="173.186" y="60.639" width="17.086" height="85.008" style="fill:#004e7b;fill-rule:nonzero;stroke:#fff;stroke-width:0.75px;"/><path d="M197.654,145.647l18.457,0l5.748,-12.92l29.11,0l5.748,12.92l18.51,0l-38.813,-86.748l-38.76,86.748Zm30.955,-28.002l7.858,-17.982l7.752,17.982l-15.61,0Z" style="fill:#004e7b;fill-rule:nonzero;stroke:#fff;stroke-width:0.75px;"/></g><rect x="289.043" y="0" width="467.138" height="162.882" style="fill:#004e7b;"/><g><path d="M306.955,60.639l0,85.008l51.258,0l0,-16.98l-34.172,0l0,-68.028l-17.086,0Z" style="fill:#fff;fill-rule:nonzero;"/><rect x="365.595" y="60.639" width="17.086" height="85.008" style="fill:#fff;fill-rule:nonzero;"/><path d="M390.064,60.639l0,16.928l20.936,0l0,68.08l17.138,0l0,-68.08l20.883,0l0,-16.928l-58.957,0Z" style="fill:#fff;fill-rule:nonzero;"/><path d="M488.15,59.954c-11.848,0 -22.008,4.236 -30.48,12.709c-8.438,8.508 -12.657,18.685 -12.657,30.533c0,11.883 4.219,22.043 12.657,30.48c8.402,8.333 18.562,12.516 30.48,12.551c11.883,0 22.043,-4.183 30.481,-12.551c8.472,-8.402 12.709,-18.562 12.709,-30.48c0,-11.883 -4.237,-22.061 -12.709,-30.533c-8.473,-8.473 -18.633,-12.709 -30.481,-12.709Zm0,17.244c7.102,0 13.184,2.531 18.246,7.594c5.098,5.097 7.647,11.197 7.647,18.299c0,7.171 -2.549,13.271 -7.647,18.298c-5.098,5.028 -11.18,7.541 -18.246,7.541c-7.172,0 -13.271,-2.513 -18.299,-7.541c-5.062,-5.062 -7.594,-11.162 -7.594,-18.298c0,-7.067 2.532,-13.166 7.594,-18.299c4.992,-5.063 11.092,-7.594 18.299,-7.594Z" style="fill:#fff;fill-rule:nonzero;"/><path d="M538.67,145.647l17.085,0l0,-37.599l24.417,37.599l20.882,0l-19.775,-30.797c4.827,-1.899 7.192,-3.677 10.178,-7.857c3.586,-5.063 5.379,-10.459 5.379,-16.19l0,-2.214c0,-9.405 -3.052,-14.126 -8.227,-19.301c-5.136,-5.075 -12.789,-8.649 -22.254,-8.649l-27.738,0l0.053,85.008Zm29.32,-44.56l-5.695,0l0,-0.053l-6.592,0l0,-23.467l9.597,0c4.121,0 8.33,1.22 10.547,3.375c2.25,2.356 3.375,5.08 3.375,8.174c0,6.481 -5.006,11.971 -11.232,11.971Z" style="fill:#fff;fill-rule:nonzero;"/><path d="M605.22,145.647l18.457,0l5.748,-12.92l29.11,0l5.748,12.92l18.51,0l-38.813,-86.748l-38.76,86.748Zm30.955,-28.002l7.858,-17.982l7.752,17.982l-15.61,0Z" style="fill:#fff;fill-rule:nonzero;"/><path d="M690.175,60.639l0,85.008l51.258,0l0,-16.98l-34.172,0l0,-68.028l-17.086,0Z" style="fill:#fff;fill-rule:nonzero;"/></g><g><path d="M645.204,17.225l0,28.179l16.871,0l0,-5.629l-11.247,0l0,-22.55l-5.624,0Z" style="fill:#fff;fill-rule:nonzero;"/><path d="M664.505,17.155l0,28.284l16.871,0l0,-5.629l-11.248,0l0,-5.681l8.436,0l0,-5.646l-8.436,0l0,-5.681l11.248,0l0,-5.647l-16.871,0Z" style="fill:#fff;fill-rule:nonzero;"/><path d="M691.628,39.883c-1.578,0 -3.276,-1.282 -3.276,-2.855l-5.584,1.196c0.637,4.197 4.549,7.393 8.877,7.393c4.71,0 8.944,-3.837 8.944,-8.589c0,-3.923 -3.114,-6.632 -6.644,-7.658c-1.944,-0.581 -5.134,-1.256 -5.134,-3.795c0,-1.564 1.289,-2.863 2.851,-2.863c1.536,0 2.826,1.299 2.826,2.846l5.584,-1.188c-0.577,-4.179 -4.142,-7.393 -8.444,-7.393c-4.718,0 -8.546,3.829 -8.546,8.581c0,3.838 3.013,6.658 6.424,7.829c1.935,0.675 5.364,1.034 5.364,3.607c0,1.564 -1.715,2.863 -3.267,2.863l0.025,0.026Z" style="fill:#fff;fill-rule:nonzero;"/><path d="M701.978,17.225l0,5.612l6.891,0l0,22.567l5.64,0l0,-22.567l6.874,0l0,-5.612l-19.405,0Z" style="fill:#fff;fill-rule:nonzero;"/><path d="M723.813,17.155l0,28.284l16.87,0l0,-5.629l-11.247,0l0,-5.681l8.436,0l0,-5.646l-8.436,0l0,-5.681l11.247,0l0,-5.647l-16.87,0Z" style="fill:#fff;fill-rule:nonzero;"/></g></g></g></svg>